<svg width="15" height="15" viewBox="0 0 15 15" fill="none" xmlns="http://www.w3.org/2000/svg">
<path d="M14.25 2.53125V13.2559C14.25 13.7259 14.0768 14.1341 13.7305 14.4805C13.3841 14.8268 12.9635 15 12.4688 15H1.78125C1.28646 15 0.865885 14.8268 0.519531 14.4805C0.173177 14.1341 0 13.7259 0 13.2559V2.53125C0 2.03646 0.173177 1.61589 0.519531 1.26953C0.865885 0.923177 1.28646 0.75 1.78125 0.75H12.4688C12.9635 0.75 13.3841 0.923177 13.7305 1.26953C14.0768 1.61589 14.25 2.03646 14.25 2.53125ZM9.20312 5.79688C8.63411 5.20312 7.94141 4.90625 7.125 4.90625C6.30859 4.90625 5.60352 5.20312 5.00977 5.79688C4.44076 6.36589 4.15625 7.05859 4.15625 7.875C4.15625 8.69141 4.44076 9.39648 5.00977 9.99023C5.60352 10.5592 6.30859 10.8438 7.125 10.8438C7.94141 10.8438 8.63411 10.5592 9.20312 9.99023C9.79688 9.39648 10.0938 8.69141 10.0938 7.875C10.0938 7.05859 9.79688 6.36589 9.20312 5.79688ZM13.0625 4.3125V2.53125C13.0625 2.13542 12.8646 1.9375 12.4688 1.9375H10.6875C10.2917 1.9375 10.0938 2.13542 10.0938 2.53125V4.3125C10.0938 4.70833 10.2917 4.90625 10.6875 4.90625H12.4688C12.8646 4.90625 13.0625 4.70833 13.0625 4.3125ZM12.5059 13.8125C12.877 13.8125 13.0625 13.6146 13.0625 13.2188V6.6875H11.1328C11.2318 7.00911 11.2812 7.40495 11.2812 7.875C11.2812 9.03776 10.8854 10.015 10.0938 10.8066C9.27734 11.623 8.28776 12.0312 7.125 12.0312C5.98698 12.0312 5.00977 11.623 4.19336 10.8066C3.37695 9.99023 2.96875 9.01302 2.96875 7.875C2.96875 7.50391 3.0306 7.10807 3.1543 6.6875H1.1875V13.2188C1.1875 13.3919 1.24935 13.5404 1.37305 13.6641C1.49674 13.763 1.64518 13.8125 1.81836 13.8125H12.5059Z" fill="#CACACA"/>
</svg>
