<svg width="17" height="18" viewBox="0 0 17 18" fill="none" xmlns="http://www.w3.org/2000/svg">
<path d="M2.41211 3.01172C4.04492 1.37891 6.01172 0.5625 8.3125 0.5625C10.6133 0.5625 12.5677 1.37891 14.1758 3.01172C15.8086 4.61979 16.625 6.57422 16.625 8.875C16.625 11.1758 15.8086 13.1426 14.1758 14.7754C12.5677 16.3835 10.6133 17.1875 8.3125 17.1875C7.47135 17.1875 6.67969 17.0762 5.9375 16.8535C6.38281 16.0618 6.66732 15.4681 6.79102 15.0723L7.38477 12.7715C7.75586 13.4642 8.42383 13.8105 9.38867 13.8105C10.7246 13.8105 11.8008 13.2786 12.6172 12.2148C13.4583 11.151 13.8789 9.79036 13.8789 8.13281C13.8789 6.84635 13.3841 5.73307 12.3945 4.79297C11.4049 3.82812 10.1432 3.3457 8.60938 3.3457C6.77865 3.3457 5.33138 3.88997 4.26758 4.97852C3.20378 6.04232 2.67188 7.22982 2.67188 8.54102C2.67188 10.1986 3.24089 11.2624 4.37891 11.7324C4.60156 11.8314 4.75 11.7572 4.82422 11.5098C4.82422 11.4603 4.83659 11.349 4.86133 11.1758C4.91081 11.0026 4.94792 10.8913 4.97266 10.8418C5.02214 10.6934 4.98503 10.5449 4.86133 10.3965C4.49023 9.95117 4.30469 9.4069 4.30469 8.76367C4.30469 7.67513 4.67578 6.7474 5.41797 5.98047C6.1849 5.1888 7.17448 4.79297 8.38672 4.79297C9.47526 4.79297 10.3288 5.08984 10.9473 5.68359C11.5658 6.2526 11.875 7.00716 11.875 7.94727C11.875 9.18424 11.6276 10.2357 11.1328 11.1016C10.638 11.9427 10.0072 12.3633 9.24023 12.3633C8.79492 12.3633 8.4362 12.2148 8.16406 11.918C7.89193 11.5964 7.80534 11.2129 7.9043 10.7676C7.95378 10.5202 8.04036 10.1862 8.16406 9.76562C8.3125 9.34505 8.42383 8.97396 8.49805 8.65234C8.59701 8.33073 8.64648 8.05859 8.64648 7.83594C8.64648 7.48958 8.54753 7.19271 8.34961 6.94531C8.15169 6.69792 7.87956 6.57422 7.5332 6.57422C7.08789 6.57422 6.70443 6.78451 6.38281 7.20508C6.08594 7.60091 5.9375 8.10807 5.9375 8.72656C5.9375 8.94922 5.96224 9.17188 6.01172 9.39453C6.0612 9.61719 6.11068 9.79036 6.16016 9.91406L6.19727 10.0625C5.57878 12.6354 5.22005 14.1445 5.12109 14.5898C4.97266 15.1836 4.92318 15.8145 4.97266 16.4824C3.48828 15.8145 2.28841 14.8001 1.37305 13.4395C0.457682 12.0788 0 10.5573 0 8.875C0 6.57422 0.804036 4.61979 2.41211 3.01172Z" fill="#CACACA"/>
</svg>
