<svg width="28" height="28" viewBox="0 0 28 28" fill="none" xmlns="http://www.w3.org/2000/svg">
<path d="M24.0609 3.49623C23.78 3.51667 23.5043 3.58257 23.2446 3.69136H23.2411C22.9917 3.79023 21.8061 4.28898 20.0036 5.04498L13.5443 7.76536C8.90943 9.71661 4.3533 11.6381 4.3533 11.6381L4.40755 11.6171C4.40755 11.6171 4.09343 11.7204 3.7653 11.9452C3.56259 12.0742 3.38815 12.243 3.25255 12.4414C3.09155 12.6776 2.96205 13.039 3.01018 13.4126C3.08893 14.0444 3.49843 14.4232 3.79243 14.6324C4.08993 14.8441 4.37343 14.943 4.37343 14.943H4.38043L8.65305 16.3824C8.84468 16.9975 9.95505 20.648 10.2219 21.4889C10.3794 21.9911 10.5326 22.3052 10.7242 22.545C10.8169 22.6675 10.9254 22.7699 11.0558 22.8521C11.1236 22.8915 11.1958 22.9227 11.2711 22.9449L11.2273 22.9344C11.2404 22.9379 11.2509 22.9484 11.2606 22.9519C11.2956 22.9615 11.3192 22.965 11.3638 22.972C12.0402 23.1767 12.5836 22.7567 12.5836 22.7567L12.6142 22.7322L15.1368 20.4354L19.3648 23.679L19.4611 23.7201C20.3422 24.1069 21.2347 23.8916 21.7063 23.5119C22.1814 23.1295 22.3661 22.6404 22.3661 22.6404L22.3967 22.5616L25.6639 5.82373C25.7567 5.41073 25.7803 5.02398 25.6779 4.64861C25.5723 4.2687 25.3286 3.94196 24.9946 3.73248C24.714 3.56196 24.3888 3.47965 24.0609 3.49623ZM23.9726 5.28998C23.9691 5.34511 23.9796 5.33898 23.9551 5.44486V5.45448L20.7184 22.0182C20.7044 22.0419 20.6808 22.0935 20.6161 22.1451C20.5478 22.1994 20.4936 22.2335 20.2092 22.1206L15.0379 18.156L11.9142 21.0032L12.5704 16.812L21.0194 8.93698C21.3677 8.61323 21.2513 8.54498 21.2513 8.54498C21.2758 8.14773 20.7254 8.42861 20.7254 8.42861L10.0714 15.0287L10.0679 15.0112L4.96143 13.2919V13.2884L4.9483 13.2857C4.95725 13.2828 4.96602 13.2793 4.97455 13.2752L5.00255 13.2612L5.02968 13.2516C5.02968 13.2516 9.5893 11.3301 14.2242 9.37886C16.5447 8.40148 18.8827 7.41711 20.6808 6.65761C21.7472 6.20874 22.8147 5.76248 23.8833 5.31886C23.9551 5.29086 23.9209 5.29086 23.9726 5.29086V5.28998Z" fill="white"/>
</svg>
