<svg width="18" height="15" viewBox="0 0 18 15" fill="none" xmlns="http://www.w3.org/2000/svg">
<path d="M17.5156 2.45703C17.0703 3.14974 16.4766 3.76823 15.7344 4.3125V4.75781C15.7344 7.35547 14.7943 9.7181 12.9141 11.8457C11.0586 13.9486 8.58464 15 5.49219 15C3.51302 15 1.68229 14.4557 0 13.3672C0.395833 13.4167 0.680339 13.4414 0.853516 13.4414C2.51107 13.4414 3.99544 12.9219 5.30664 11.8828C4.53971 11.8581 3.84701 11.623 3.22852 11.1777C2.61003 10.7077 2.18945 10.1139 1.9668 9.39648C2.26367 9.44596 2.48633 9.4707 2.63477 9.4707C2.88216 9.4707 3.20378 9.42122 3.59961 9.32227C2.7832 9.14909 2.09049 8.74089 1.52148 8.09766C0.977214 7.42969 0.705078 6.66276 0.705078 5.79688V5.75977C1.24935 6.05664 1.79362 6.20508 2.33789 6.20508C1.27409 5.51237 0.742188 4.51042 0.742188 3.19922C0.742188 2.58073 0.902995 1.98698 1.22461 1.41797C3.12956 3.76823 5.59115 5.01758 8.60938 5.16602C8.5599 4.99284 8.53516 4.7207 8.53516 4.34961C8.53516 3.33529 8.88151 2.48177 9.57422 1.78906C10.2669 1.09635 11.1204 0.75 12.1348 0.75C13.1491 0.75 14.015 1.13346 14.7324 1.90039C15.4746 1.77669 16.2415 1.47982 17.0332 1.00977C16.7858 1.87565 16.2539 2.54362 15.4375 3.01367C16.2044 2.93945 16.8971 2.75391 17.5156 2.45703Z" fill="#CACACA"/>
</svg>
