<svg width="19" height="15" viewBox="0 0 19 15" fill="none" xmlns="http://www.w3.org/2000/svg">
<path d="M18.8887 3.9043C18.9629 5.24023 19 6.5638 19 7.875C19 9.1862 18.9629 10.5098 18.8887 11.8457C18.8887 12.6868 18.6165 13.4043 18.0723 13.998C17.5527 14.5671 16.9095 14.8516 16.1426 14.8516C14.2376 14.9505 12.0234 15 9.5 15C6.97656 15 4.76237 14.9505 2.85742 14.8516C2.09049 14.8516 1.4349 14.5671 0.890625 13.998C0.371094 13.4043 0.111328 12.6868 0.111328 11.8457C0.0371094 10.5098 0 9.1862 0 7.875C0 7.00911 0.0494792 5.68555 0.148438 3.9043C0.148438 3.06315 0.408203 2.35807 0.927734 1.78906C1.44727 1.19531 2.09049 0.898438 2.85742 0.898438C4.66341 0.799479 6.76628 0.75 9.16602 0.75H9.5H9.83398C12.2337 0.75 14.3366 0.799479 16.1426 0.898438C16.9095 0.898438 17.5527 1.19531 18.0723 1.78906C18.6165 2.35807 18.8887 3.06315 18.8887 3.9043ZM7.68164 11.5117L13.0625 7.875L7.68164 4.20117V11.5117Z" fill="#CACACA"/>
</svg>
