<svg width="17" height="13" viewBox="0 0 17 13" fill="none" xmlns="http://www.w3.org/2000/svg">
<path d="M16.4502 12.0273L16.4503 12.0274C16.4817 12.074 16.498 12.1257 16.5 12.1772C16.5019 12.2286 16.4894 12.2808 16.4621 12.3287L16.462 12.3288C16.4058 12.4273 16.2894 12.5 16.1501 12.5H0.850084H0.850022C0.782802 12.5 0.718092 12.4826 0.662909 12.4514C0.607863 12.4201 0.565569 12.377 0.538044 12.3289C0.510712 12.281 0.498265 12.2287 0.500194 12.1773C0.502127 12.1257 0.518525 12.074 0.549909 12.0273L0.54992 12.0273L8.19989 0.65232C8.1999 0.652305 8.19991 0.652289 8.19992 0.652273C8.26006 0.562914 8.37105 0.5 8.50009 0.5C8.62912 0.5 8.74011 0.562914 8.80025 0.652273C8.80026 0.652289 8.80027 0.652305 8.80028 0.65232L16.4502 12.0273ZM8.91498 2.03607L8.50007 1.41918L8.08519 2.03609L5.37422 6.0671L5.13919 6.41657L5.44363 6.70757L6.45459 7.67394L6.80009 8.00418L7.14558 7.67394L8.70062 6.1875H10.7683H11.7071L11.1831 5.40846L8.91498 2.03607Z" fill="#444444" stroke="black"/>
</svg>
