<svg width="13" height="17" viewBox="0 0 13 17" fill="none" xmlns="http://www.w3.org/2000/svg">
<path d="M2.74055 15.6795C2.59566 16.2493 2.94842 16.826 3.52868 16.9681C3.61704 16.99 3.7054 16.9997 3.79274 16.9997C4.27787 16.9997 4.71933 16.6776 4.8429 16.1952L5.69737 12.8426L3.91055 11.0902L2.74055 15.6795ZM3.24464 9.16771L4.63808 3.88477C4.71222 3.6052 4.53178 3.32197 4.23454 3.25191C2.74902 2.90262 1.24352 3.75229 0.872141 5.15014L0.0166463 8.40836C-0.0574943 8.68793 0.122948 8.97115 0.420188 9.04121L2.57196 9.54756C2.86954 9.61728 3.1705 9.44728 3.24464 9.16771ZM12.4584 5.3125H11.9167C11.6175 5.3125 11.3751 5.55023 11.3751 5.84375V6.375H10.1986L8.61493 4.82176C8.23948 4.45287 7.73946 4.25 7.20795 4.25C6.29321 4.25 5.49933 4.85762 5.27724 5.7282L4.36589 9.30484C4.32056 9.48286 4.32299 9.66936 4.37294 9.84618C4.4229 10.023 4.51867 10.1841 4.65094 10.3139L7.58339 13.1899V15.9375C7.58339 16.5242 8.06852 17 8.66672 17C9.26493 17 9.75006 16.5242 9.75006 15.9375V13.1899C9.75006 12.6225 9.52459 12.0889 9.11529 11.6875L7.53024 10.1329C7.53532 10.1163 7.54683 10.1034 7.55123 10.0861L8.22459 7.44414L8.98394 8.18889C9.18706 8.38811 9.46263 8.50033 9.74972 8.50033H11.3747V16.4691C11.3747 16.7626 11.6171 17.0003 11.9164 17.0003H12.458C12.7573 17.0003 12.9997 16.7626 12.9997 16.4691V5.84375C13.0001 5.55023 12.7577 5.3125 12.4584 5.3125ZM8.12506 3.1875C9.02253 3.1875 9.75006 2.47396 9.75006 1.59375C9.75006 0.713535 9.02253 0 8.12506 0C7.22758 0 6.50006 0.713535 6.50006 1.59375C6.50006 2.47396 7.22758 3.1875 8.12506 3.1875Z" fill="#444444"/>
</svg>
