<svg width="17" height="16" viewBox="0 0 17 16" fill="none" xmlns="http://www.w3.org/2000/svg">
<path d="M16.4489 13.833L13.3331 10.7177C13.1924 10.5771 13.0018 10.499 12.8018 10.499H12.2924C13.1549 9.39596 13.6675 8.00859 13.6675 6.49937C13.6675 2.90909 10.7579 0 7.16698 0C3.57609 0 0.666504 2.90909 0.666504 6.49937C0.666504 10.0896 3.57609 12.9987 7.16698 12.9987C8.67647 12.9987 10.0641 12.4863 11.1673 11.6239V12.1332C11.1673 12.3332 11.2454 12.5238 11.386 12.6644L14.5019 15.7797C14.7957 16.0734 15.2707 16.0734 15.5613 15.7797L16.4458 14.8954C16.7396 14.6017 16.7396 14.1267 16.4489 13.833ZM7.16698 10.499C4.95744 10.499 3.16669 8.71165 3.16669 6.49937C3.16669 4.29021 4.95432 2.49976 7.16698 2.49976C9.37652 2.49976 11.1673 4.28708 11.1673 6.49937C11.1673 8.70852 9.37964 10.499 7.16698 10.499Z" fill="white"/>
</svg>
