<svg width="202" height="19" viewBox="0 0 202 19" fill="none" xmlns="http://www.w3.org/2000/svg">
<path d="M0.125 18V0.545454H4.86364V7.60227H5.10227L10.3523 0.545454H15.875L9.97727 8.31818L16.0114 18H10.3523L6.43182 11.4545L4.86364 13.5V18H0.125ZM22.0199 0.545454V18H17.2812V0.545454H22.0199ZM24.2656 0.545454H30.1634L34.2202 10.4318H34.4247L38.4815 0.545454H44.3793V18H39.7429V7.90909H39.6065L35.7202 17.8636H32.9247L29.0384 7.84091H28.902V18H24.2656V0.545454ZM47.8438 18H46.1733L52.5227 0.545454H54.2273L60.5767 18H58.9062L53.4347 2.61648H53.3153L47.8438 18ZM49.0455 11.3097H57.7045V12.7415H49.0455V11.3097ZM68.6818 18H63.5682V0.545454H68.9886C70.6534 0.545454 72.0767 0.892045 73.2585 1.58523C74.446 2.27841 75.3551 3.27273 75.9858 4.56818C76.6165 5.86364 76.9318 7.41761 76.9318 9.23011C76.9318 11.0597 76.608 12.6307 75.9602 13.9432C75.3182 15.25 74.3807 16.2528 73.1477 16.9517C71.9205 17.6506 70.4318 18 68.6818 18ZM65.1619 16.5682H68.5881C70.0881 16.5682 71.3438 16.2727 72.3551 15.6818C73.3665 15.0909 74.125 14.2472 74.6307 13.1506C75.1364 12.054 75.3892 10.7472 75.3892 9.23011C75.3835 7.72443 75.1335 6.42898 74.6392 5.34375C74.1506 4.25852 73.4233 3.42614 72.4574 2.84659C71.4972 2.26704 70.3097 1.97727 68.8949 1.97727H65.1619V16.5682ZM80 0.545454L85.4545 15.929H85.608L91.0625 0.545454H92.733L86.3835 18H84.679L78.3295 0.545454H80ZM95.7244 18V0.545454H105.849V1.97727H97.3182V8.5483H105.312V9.98011H97.3182V16.5682H106.02V18H95.7244ZM123.568 0.545454V18H122.017L111.705 3.38352H111.568V18H109.974V0.545454H111.517L121.864 15.179H122V0.545454H123.568ZM127.152 1.97727V0.545454H139.808V1.97727H134.277V18H132.683V1.97727H127.152ZM155.03 0.545454H156.624V12.1023C156.624 13.2898 156.345 14.3523 155.788 15.2898C155.232 16.2216 154.456 16.9574 153.462 17.4972C152.473 18.0312 151.322 18.2983 150.01 18.2983C148.703 18.2983 147.553 18.0284 146.558 17.4886C145.564 16.9489 144.788 16.2131 144.232 15.2812C143.675 14.3494 143.396 13.2898 143.396 12.1023V0.545454H144.99V11.9915C144.99 12.9176 145.197 13.7443 145.612 14.4716C146.027 15.1932 146.609 15.7614 147.359 16.1761C148.115 16.5909 148.999 16.7983 150.01 16.7983C151.021 16.7983 151.905 16.5909 152.661 16.1761C153.416 15.7614 153.999 15.1932 154.408 14.4716C154.822 13.7443 155.03 12.9176 155.03 11.9915V0.545454ZM161.256 18V0.545454H166.889C168.128 0.545454 169.162 0.769886 169.991 1.21875C170.827 1.66193 171.455 2.27841 171.875 3.06818C172.301 3.85227 172.514 4.75284 172.514 5.76989C172.514 6.78693 172.301 7.68466 171.875 8.46307C171.455 9.24148 170.83 9.84943 170 10.2869C169.17 10.7244 168.142 10.9432 166.915 10.9432H162.116V9.4858H166.872C167.781 9.4858 168.537 9.33523 169.139 9.03409C169.747 8.73295 170.199 8.30398 170.494 7.74716C170.795 7.19034 170.946 6.53125 170.946 5.76989C170.946 5.00852 170.795 4.34375 170.494 3.77557C170.193 3.2017 169.739 2.75852 169.131 2.44602C168.528 2.13352 167.767 1.97727 166.847 1.97727H162.849V18H161.256ZM168.952 10.125L173.247 18H171.406L167.153 10.125H168.952ZM176.396 18V0.545454H186.521V1.97727H177.99V8.5483H185.984V9.98011H177.99V16.5682H186.692V18H176.396ZM200.124 4.90909C200.027 3.9375 199.598 3.16477 198.837 2.59091C198.075 2.01705 197.118 1.73011 195.964 1.73011C195.152 1.73011 194.436 1.86932 193.817 2.14773C193.203 2.42614 192.72 2.8125 192.368 3.30682C192.021 3.79545 191.848 4.35227 191.848 4.97727C191.848 5.4375 191.947 5.84091 192.146 6.1875C192.345 6.53409 192.612 6.83239 192.947 7.08239C193.288 7.3267 193.663 7.53693 194.072 7.71307C194.487 7.8892 194.905 8.03693 195.325 8.15625L197.166 8.68466C197.723 8.83807 198.28 9.03409 198.837 9.27273C199.393 9.51136 199.902 9.8125 200.362 10.1761C200.828 10.5341 201.2 10.9744 201.479 11.4972C201.763 12.0142 201.905 12.6364 201.905 13.3636C201.905 14.2955 201.663 15.1335 201.18 15.8778C200.697 16.6222 200.004 17.2131 199.101 17.6506C198.197 18.0824 197.115 18.2983 195.854 18.2983C194.666 18.2983 193.635 18.1023 192.76 17.7102C191.885 17.3125 191.197 16.7642 190.697 16.0653C190.197 15.3665 189.916 14.5568 189.854 13.6364H191.49C191.547 14.3239 191.774 14.9062 192.172 15.3835C192.57 15.8608 193.087 16.2244 193.723 16.4744C194.359 16.7187 195.07 16.8409 195.854 16.8409C196.723 16.8409 197.496 16.696 198.172 16.4062C198.854 16.1108 199.388 15.7017 199.774 15.179C200.166 14.6506 200.362 14.0369 200.362 13.3381C200.362 12.7472 200.209 12.2528 199.902 11.8551C199.595 11.4517 199.166 11.1136 198.615 10.8409C198.07 10.5682 197.436 10.3267 196.714 10.1165L194.626 9.50284C193.257 9.09375 192.195 8.52841 191.439 7.80682C190.683 7.08523 190.305 6.16477 190.305 5.04545C190.305 4.10795 190.555 3.28409 191.055 2.57386C191.561 1.85795 192.243 1.30114 193.101 0.903408C193.964 0.499999 194.933 0.298295 196.007 0.298295C197.092 0.298295 198.053 0.497159 198.888 0.894886C199.723 1.29261 200.385 1.84091 200.874 2.53977C201.368 3.23295 201.632 4.02273 201.666 4.90909H200.124Z" fill="white"/>
</svg>
